<svg viewBox="0 0 512 512" xmlns="http://www.w3.org/2000/svg">
  <defs>
    <linearGradient id="bg" x1="0" y1="0" x2="0" y2="1">
      <stop offset="0%" stop-color="#a7f3d0"/>
      <stop offset="100%" stop-color="#6ee7b7"/>
    </linearGradient>
    <linearGradient id="leaf" x1="0" y1="0" x2="0" y2="1">
      <stop offset="0%" stop-color="#34d399"/>
      <stop offset="100%" stop-color="#059669"/>
    </linearGradient>
  </defs>
  <!-- Safe area is the inner 80% per Android maskable spec; bg covers full square. -->
  <rect width="512" height="512" fill="url(#bg)"/>
  <g transform="translate(128 96) scale(4)">
    <path d="M32 4 C18 4 8 14 8 28 C8 44 22 56 32 60 C42 56 56 44 56 28 C56 14 46 4 32 4 Z" fill="url(#leaf)"/>
    <path d="M32 8 L32 58" stroke="#065f46" stroke-width="1.5" stroke-linecap="round" opacity="0.5"/>
    <path d="M32 18 C24 22 20 26 18 32 M32 28 C24 32 20 36 19 42 M32 38 C26 42 23 46 22 50 M32 18 C40 22 44 26 46 32 M32 28 C40 32 44 36 45 42 M32 38 C38 42 41 46 42 50" stroke="#065f46" stroke-width="1.2" stroke-linecap="round" fill="none" opacity="0.45"/>
    <path d="M32 60 L32 62" stroke="#065f46" stroke-width="2" stroke-linecap="round"/>
  </g>
</svg>
